<svg width="96px" height="96px" xmlns="http://www.w3.org/2000/svg" viewBox="0 0 5573.77 1096.65"><defs><style>.cls-1{fill:#00af7e}.cls-2{fill:#141a23}</style></defs><g id="Слой_2" data-name="Слой 2"><g id="Слой_1-2" data-name="Слой 1"><path class="cls-1" d="m1200.52 264.43-88.27 234.98H915.94l-88.27-234.98h372.85z"/><path class="cls-2" d="M147.17 851.88h232.36l-88.31 235.06H56.89l90.28-235.06zM282.54 499.41h229.41L467.81 616.9H237.42l45.12-117.49zM1143.41 1086.94l-234.22-.11-220.7-587.42-88.27-234.98H372.77L474.29 0H726.1l101.57 264.43 90.23 234.98 225.51 587.53z"/><path class="cls-1" d="m600.22 264.43-88.27 234.98H88.27L0 264.43h600.22zM732.62 616.9l88.27 234.98H88.27L0 616.9h732.62zM1200.52 616.9l-88.27 234.98h-59L963.02 616.9h237.5z"/><path class="cls-2" d="M1257.93 1089c-16.28 0-29.88-5.53-41.08-16.58-11-11.21-16.58-24.8-16.58-40.93s5.53-29.72 16.58-40.78c11.2-11.2 24.8-16.72 41.08-16.72s29.87 5.52 40.92 16.72c11.2 11.06 16.73 24.65 16.73 40.78s-5.53 29.72-16.73 40.93c-11.05 11.05-24.64 16.58-40.92 16.58Zm34.65-22.41c9.41-9.56 14-21.21 14-35.1s-4.63-25.54-14-35-20.91-14.34-34.65-14.34-25.25 4.78-34.66 14.34-14 21.06-14 35 4.63 25.54 14 35.1a47.34 47.34 0 0 0 34.66 14.19c13.74 0 25.24-4.78 34.65-14.19Zm-28.21-32.93h-17.61v25.88h-9.87v-59h23.21q22.15 0 22.15 15.21 0 11.21-10.94 14.14 9.33 2.14 9.34 12.28v4.8c0 2.14.31 3.56.93 4.27s2.09 1.07 4.41 1.07h1.06v7.2h-6.13q-10.15 0-10.14-8.53v-11.18q0-6.13-6.41-6.14Zm-4.53-25.35h-13.08V1027h13.87q11.22 0 11.21-9.87 0-8.81-12-8.82ZM1614.61 1085.07h-152.44l304.89-822.54h166.7l315.85 822.54h-166.7l-72.38-191.93h-327.92Zm115.16-323.53h231.4l-118.44-315.85ZM2649.12 1085.07V926c-20.83 106.39-77.86 170-186.44 170-111.86 0-223.68-89.9-223.68-288.4 0-191.92 111.87-281.86 223.73-281.86 108.58 0 165.61 62.52 186.44 167.8v-431h142.57v822.54Zm-123.93-88.84c71.29 0 119.55-65.8 119.55-188.63 0-118.45-48.26-184.25-119.55-184.25s-128.31 65.8-128.31 184.25c0 122.83 57.03 188.63 128.31 188.63ZM3180.05 1085.07h-98.71l-235.79-548.36h156.83l140.38 357.53 142.57-357.53h138.19ZM3698.73 525.74c114.06 0 220.44 72.39 246.76 186.45L3815 760.44c-18.65-100.9-64.71-142.57-125-142.57-73.48 0-121.73 68-121.73 191.92 0 132.7 58.13 191.93 122.83 191.93 66.9 0 102-51.55 123.93-153.54l130.51 48.25C3924.65 1018.17 3815 1096 3698.73 1096c-159 0-289.53-117.34-289.53-286.24 0-166.67 130.5-284.02 289.53-284.02ZM4706.41 683.67c0 29.61 27.42 45 115.16 63.61 140.38 29.61 187.54 80.06 187.54 171.09 0 95.41-60.32 177.66-212.77 177.66-114.06 0-193-42.77-233.6-129.41l97.61-54.83c27.42 52.64 77.87 75.67 139.28 75.67 58.13 0 81.16-18.64 81.16-48.26 0-31.8-27.42-50.44-115.15-69.09-127.22-26.32-187.54-74.57-187.54-176.57 0-109.67 89.93-167.8 200.7-167.8 92.12 0 178.76 34 219.34 129.42l-97.61 49.35c-27.42-52.64-68-72.38-116.25-72.38-51.55 0-77.87 20.87-77.87 51.54ZM5222.82 1085.07h-142.57V262.53h142.57v454c20.84-121.73 77.87-190.83 186.44-190.83 85.55 0 164.51 58.13 164.51 172.19v387.14H5431.2V751.67c0-25.23-7.68-48.26-21.94-71.29s-37.28-34-69.09-34c-87.74 0-117.35 88.84-117.35 131.61ZM4135.75 744.18l-130.67-48.31q9.89-43.89 34.05-76.3a206.89 206.89 0 0 1 58.18-53.25q34-20.85 76.86-30.75a399.26 399.26 0 0 1 90.05-9.89q124.05 0 177.86 39.54t53.81 130.65v389.78h-143.25l.52-86.74v-25.24l-45.76 56.09a172.78 172.78 0 0 1-83.46 56.49c-1.22.37-2.44.73-3.66 1.07q-33 9.32-62.58 9.33-71.39 0-114.75-39t-43.36-107.05q0-61.5 26.89-91.69t74.13-46.67q47.21-16.46 112-29.64t140.55-40.6v-23.07q0-43.92-22-64.78t-72.47-20.86q-61.5 0-84 25.82t-38.94 85.07Zm19.77 181.18q0 30.75 18.65 49.42t52.71 18.65q14.27 0 33.48-6.57a126 126 0 0 0 36.78-20.32q17.58-13.72 32.95-34.59t23.07-49.41v-87.73c-78.35 24.16-130.86 35.76-157.58 54.8s-40.06 44.28-40.06 75.75Z"/></g></g></svg>