<svg xmlns="http://www.w3.org/2000/svg" width="72" height="72"><g fill-rule="nonzero" fill="none"><path fill="#394247" d="M14.386 50.887c-.534.615-1.082.915-1.683.915-1.15 0-2.044-1.015-2.044-2.316 0-1.316.868-2.331 1.99-2.331.829 0 1.363.472 1.724.886l.067.086.695-.786-.067-.072c-.468-.53-1.163-1.144-2.405-1.144-1.71 0-3.1 1.516-3.1 3.375 0 1.888 1.363 3.375 3.1 3.375 1.256 0 1.977-.672 2.458-1.244l.067-.086-.722-.715-.08.057zm5.072-4.525c-.835 0-1.516.325-2.011.975v-3.462l-1.134.551v8.435h1.134V49.23c0-1.074.722-1.823 1.756-1.823 1.006 0 1.601.664 1.601 1.752v3.716h1.134v-3.942c0-1.568-.963-2.571-2.48-2.571zm6.474-.237c-.97 0-1.674.26-2.278.548l-.085.043.352.967.098-.044c.661-.302 1.21-.447 1.828-.447 1.125 0 1.716.548 1.716 1.601v.058a6.243 6.243 0 0 0-1.772-.23c-1.715 0-2.728.807-2.728 2.163 0 1.37 1.21 2.091 2.405 2.091 1.026 0 1.687-.447 2.11-.894v.75h1.11v-3.952c0-.837-.225-1.471-.675-1.933-.478-.461-1.195-.721-2.081-.721zm1.631 3.692v.505c0 .909-.83 1.587-1.94 1.587-.69 0-1.435-.36-1.435-1.154 0-.736.633-1.183 1.688-1.183.73 0 1.307.13 1.687.245zm5.958-3.692c-.836 0-1.516.336-2.012 1.008v-.862h-1.134v6.604h1.134v-3.784c0-1.11.723-1.885 1.757-1.885 1.006 0 1.601.687 1.601 1.812v3.842h1.134v-4.075c0-1.622-.978-2.659-2.48-2.659zm8.695 1.605c-.582-.69-1.327-1.043-2.207-1.043-.73 0-1.462.296-1.99.803-.582.564-.893 1.339-.893 2.212 0 .86.31 1.648.893 2.211a2.91 2.91 0 0 0 1.99.803c.88 0 1.612-.366 2.22-1.098v.422c0 1.324-.744 2.085-2.044 2.085-.798 0-1.543-.254-2.22-.76l-.095-.071-.5.901.08.057c.8.577 1.733.873 2.749.873.988 0 1.787-.296 2.329-.86.514-.549.785-1.295.785-2.253v-5.198H42.23v.916h-.014zm.04 1.958c0 1.253-1.055 2-2.07 2-1.097 0-1.95-.873-1.95-1.986 0-1.155.812-1.986 1.95-1.986 1.015-.014 2.07.732 2.07 1.972zm5.305-3.563c-1.785 0-3.123 1.444-3.123 3.375 0 1.93 1.396 3.375 3.252 3.375 1.094 0 1.914-.372 2.676-1.216l.072-.085-.748-.658-.072.071c-.56.587-1.165.844-1.9.844-1.107 0-1.927-.744-2.086-1.86h4.965l.014-.1c.014-.142.014-.242.014-.328-.014-2.045-1.237-3.418-3.064-3.418zm1.87 2.889h-3.813c.173-1.116.95-1.888 1.928-1.888 1.195 0 1.756.944 1.885 1.888zm2.32 3.861h1.125v-9l-1.125.591zm2.812 0h1.125v-9l-1.125.565zm7.198-6.187-1.982 5.033-2.246-5.033h-1.282l2.945 6.335c-.394.886-.73 1.058-1.182 1.058-.379 0-.64-.057-.947-.214l-.102-.058-.408.944.087.043c.481.229.89.329 1.4.329 1.035 0 1.676-.53 2.216-1.83L63 46.687h-1.239z"/><path fill="#10D078" d="M47.511 16.915c-.098 0-2.28.101-4.991.766-3.675.886-6.426 2.356-8.116 4.35-.374.443-.727.866-1.042 1.27-.668.18-2.515.704-3.36.865a1.918 1.918 0 0 0-1.199.806c-.609.906-1.67 2.76-1.71 2.84l-1.218 2.135 2.221-.987c.963-.443 2.319-.745 2.712-.503.02.02.04.02.059.14 0 .645.157 1.27.452 1.894a2.439 2.439 0 0 0-.904 2.034v2.78h2.712c.766.04 1.493-.322 1.984-.927.61.302 1.219.443 1.847.464.099.02.118.04.118.06.236.403-.059 1.793-.49 2.78l-.964 2.256 2.083-1.25c.079-.04 1.887-1.127 2.771-1.752.413-.282.688-.725.786-1.228.177-.866.668-2.76.845-3.445a42.88 42.88 0 0 0 1.238-1.067c4.558-4.131 4.972-13.072 4.991-13.455l.04-.866-.865.04zm-16.33 9.97c-.51-.16-1.1-.14-1.67-.04.216-.362.432-.705.609-.967.04-.08.118-.12.216-.14.393-.081 1.002-.242 1.612-.383a7.459 7.459 0 0 0-.767 1.53zm2.673 6.466a.785.785 0 0 1-.688.322h-.256l1.631-2.618-2.554 1.692v-.282a.8.8 0 0 1 .314-.705l3.125-2.538c.157-.141.373-.242.57-.282l.825-.201-.197.846c-.059.221-.137.423-.275.584l-2.495 3.182zm5.856 2.034a.388.388 0 0 1-.138.222c-.255.181-.59.403-.943.624.098-.584.118-1.188-.04-1.712.472-.18.963-.423 1.494-.765-.138.604-.295 1.208-.373 1.631zm2.593-5.398c-2.711 2.458-4.205 3.183-5.286 3.223h-.039c-.334 0-.61-.06-.884-.161l1.454-1.893c.275-.363.472-.766.59-1.209l.786-3.384-3.302.806c-.432.1-.845.302-1.179.584l-1.847 1.49a2.647 2.647 0 0 1-.157-.906v-.04c.02-1.088.747-2.639 3.144-5.418 2.889-3.364 8.862-4.27 11.103-4.492-.217 2.316-1.1 8.44-4.383 11.4z"/><path fill="#10D078" d="M29.838 39.18c-1.02.206-2.06.267-3.1.288-.6 0-1.2-.02-1.82-.082.24-.412.46-.823.66-1.255.38-.885.66-1.77.88-2.675.2-.864.44-1.707.74-2.55.28-.844.6-1.688.96-2.531-.32.33-.6.679-.86 1.05-.26.37-.52.76-.76 1.151-.46.782-.86 1.646-1.2 2.49-.32.822-.66 1.645-1.06 2.386-.4.74-.86 1.42-1.42 2.078l-.92 1.11 1.42.206c1.12.165 2.26.247 3.4.206.58-.02 1.14-.062 1.72-.165.56-.082 1.14-.226 1.68-.39 1.1-.33 2.16-.864 3.1-1.543.46-.35.9-.741 1.26-1.194.36-.452.7-.925.92-1.46-.76.823-1.68 1.42-2.62 1.892-.96.474-1.96.782-2.98.988zm11.788-12.742c.716 0 1.433-.28 1.99-.821a2.825 2.825 0 0 0 0-3.984 2.76 2.76 0 0 0-1.99-.82c-.757 0-1.454.3-1.992.82a2.826 2.826 0 0 0 0 3.984c.538.54 1.255.82 1.991.82zm-.877-3.684c.24-.24.538-.36.857-.36.318 0 .637.12.856.36.478.48.478 1.241 0 1.722-.478.48-1.235.48-1.713 0-.458-.46-.458-1.241 0-1.722z"/></g></svg>