<svg xmlns="http://www.w3.org/2000/svg" width="72" height="72"><g fill="none"><path fill="#3B3B3B" d="M58.74 34.784c.074.037.13.117.13.203v4.462a.21.21 0 0 1-.204.203.197.197 0 0 1-.202-.203v-.848c-.339.67-.935 1.155-1.697 1.155-1.21 0-1.88-1.05-1.88-2.163v-2.612c0-.104.086-.203.202-.203a.21.21 0 0 1 .203.203v2.612c0 .879.498 1.752 1.475 1.752 1.37 0 1.697-1.285 1.697-2.705v-1.664c0-.123.129-.246.276-.19zm-39.475-.135c1.37 0 2.36 1.217 2.367 2.526a.22.22 0 0 1-.222.215h-4.074c.104 1.008.86 1.93 1.93 1.93.73 0 1.272-.277 1.677-.86.043-.062.105-.105.178-.105.117 0 .203.086.203.203a.19.19 0 0 1-.03.104c-.412.713-1.23 1.064-2.029 1.064-1.37 0-2.353-1.23-2.353-2.539 0-1.315.977-2.538 2.353-2.538zm18.942 0c1.364 0 2.354 1.217 2.366 2.526a.219.219 0 0 1-.221.215h-4.075c.105 1.008.86 1.93 1.93 1.93.731 0 1.272-.277 1.678-.86.043-.062.104-.105.178-.105.117 0 .203.086.203.203a.19.19 0 0 1-.031.104c-.412.713-1.23 1.064-2.028 1.064-1.37 0-2.354-1.23-2.354-2.539 0-1.315.977-2.538 2.354-2.538zm11.708 0c1.37 0 2.36 1.217 2.366 2.526a.22.22 0 0 1-.221.215h-4.075c.104 1.008.86 1.93 1.93 1.93.731 0 1.272-.277 1.677-.86.043-.062.105-.105.179-.105.116 0 .203.086.203.203a.19.19 0 0 1-.031.104c-.412.713-1.23 1.064-2.028 1.064-1.37 0-2.354-1.23-2.354-2.539 0-1.315.977-2.538 2.354-2.538zm-24.652-1.683a.2.2 0 0 1 .227.203v1.58h1.088c.117 0 .203.104.203.202a.197.197 0 0 1-.203.203h-1.094v4.296a.204.204 0 0 1-.203.203.21.21 0 0 1-.203-.203v-4.297h-1.05a.197.197 0 0 1-.203-.203c0-.104.086-.203.202-.203h1.051V33.18c0-.104.08-.203.185-.215zm4.191-2.286c.117 0 .203.104.203.203v4.83c.35-.627.977-1.05 1.709-1.05 1.204 0 1.886 1.05 1.886 2.163v2.6a.208.208 0 0 1-.203.202.197.197 0 0 1-.202-.203v-2.6c0-.878-.498-1.75-1.475-1.75-1.254 0-1.795 1.093-1.721 2.218 0 .03.012.16.012.178v1.948c0 .105-.08.203-.184.215a.2.2 0 0 1-.228-.202v-8.55c0-.104.086-.202.203-.202zm37.852 3.982c1.199 0 1.881 1.04 1.881 2.145v2.612a.208.208 0 0 1-.203.203.197.197 0 0 1-.203-.203v-2.613c0-.879-.497-1.739-1.475-1.739-1.229 0-1.696 1.315-1.696 2.335v2.016a.208.208 0 0 1-.203.203.198.198 0 0 1-.203-.203v-2.612c0-.879-.497-1.739-1.475-1.739-1.241 0-1.751.977-1.708 2.28 0 .03.012.086 0 .105v1.96c0 .105-.08.203-.184.215a.2.2 0 0 1-.228-.203v-4.455c0-.105.08-.203.185-.215a.2.2 0 0 1 .227.202v.744c.35-.627.977-1.039 1.708-1.039.83 0 1.475.529 1.74 1.297.338-.762.995-1.297 1.837-1.297zm-21.953.086c.105 0 .222.074.222.191 0 .129-.074.203-.19.221-1.2.178-1.74 1.156-1.74 2.293v1.948c0 .104-.08.203-.184.215a.201.201 0 0 1-.228-.203v-4.444c0-.105.08-.203.185-.215a.2.2 0 0 1 .227.202v.904c.338-.572 1.008-1.113 1.708-1.113zm-26.089.308c-1.069 0-1.825.922-1.93 1.93h3.86c-.086-1.008-.86-1.93-1.93-1.93zm18.936 0c-1.064 0-1.826.922-1.93 1.93h3.86c-.087-1.008-.86-1.93-1.93-1.93zm11.714 0c-1.07 0-1.826.922-1.93 1.93h3.86c-.087-1.008-.861-1.93-1.93-1.93z"/><path fill="#000" d="m7.914 33.758-5.101 2.317 5.101 3.018 5.107-3.018z" opacity=".6"/><path fill="#000" d="m2.813 36.075 5.101 3.018V27.606z" opacity=".45"/><path fill="#000" d="M7.914 27.606v11.487l5.107-3.018z" opacity=".8"/><path fill="#000" d="m2.813 37.046 5.101 7.191v-4.18z" opacity=".45"/><path fill="#000" d="M7.914 40.057v4.18l5.107-7.191z" opacity=".8"/></g></svg>