<svg xmlns="http://www.w3.org/2000/svg" width="72" height="72"><g fill="none"><path fill="#555" d="M22.917 34.11v4.5c-.012.26.027.52.112.766.073.21.19.401.343.562.143.144.316.253.507.32.2.073.411.11.624.107.215 0 .427-.05.619-.146.19-.098.362-.23.506-.388a1.83 1.83 0 0 0 .337-.562c.083-.2.125-.414.124-.63v-4.501h2.132v7.076a3.925 3.925 0 0 1-.343 1.597c-.214.494-.523.94-.911 1.311a4.262 4.262 0 0 1-1.339.877 4.12 4.12 0 0 1-1.643.327l-1.085-.011v-2.076h1.181c.192 0 .382-.033.563-.096.199-.063.388-.154.562-.27.163-.116.307-.257.428-.416.124-.158.226-.332.303-.518l-.708.287c-.23.095-.477.144-.726.147-.492.006-.98-.08-1.44-.254a3.606 3.606 0 0 1-1.181-.753 3.425 3.425 0 0 1-.793-1.187 3.994 3.994 0 0 1-.276-1.57v-4.5h2.104zm-6.812-.264c.261.001.522.033.776.096a4 4 0 0 1 .743.27c.241.113.473.247.691.4.216.15.42.316.614.494l.798-.94h.523v7.915h-.495l-.798-1.091a8.629 8.629 0 0 1-.619.484c-.219.15-.45.282-.692.393-.248.112-.506.2-.77.265a3.288 3.288 0 0 1-.771.095 4.586 4.586 0 0 1-1.603-.28 3.762 3.762 0 0 1-2.194-2.138 4.502 4.502 0 0 1-.326-1.772 4.304 4.304 0 0 1 .326-1.688 3.933 3.933 0 0 1 2.193-2.193 4.127 4.127 0 0 1 1.604-.31zm-8.826-2.407a4.272 4.272 0 0 1 2.16.585c.636.373 1.17.9 1.553 1.53.191.318.34.66.438 1.018.104.366.157.744.158 1.125a4.017 4.017 0 0 1-.338 1.653 4.254 4.254 0 0 1-.928 1.356 4.447 4.447 0 0 1-1.378.911 4.301 4.301 0 0 1-1.687.332H5.113v2.132H2.948V31.439h4.331zm36.248 0-4.455 2.131h-6.57v8.511h-2.127v-8.51h-4.286v-2.133h17.438zm-27.4 4.46c-.27-.002-.54.045-.793.14-.245.09-.468.233-.652.417-.187.193-.334.42-.433.67a2.78 2.78 0 0 0 0 1.845c.097.253.245.484.433.68.186.183.408.324.652.416.254.093.523.141.793.141.276.001.547-.062.793-.186.246-.117.467-.28.653-.478.183-.207.328-.445.428-.703a2.1 2.1 0 0 0 .174-.804h.005a2.089 2.089 0 0 0-.18-.805 2.23 2.23 0 0 0-1.079-1.153 1.837 1.837 0 0 0-.794-.18zM5.114 33.57v4.259h2.165a2.08 2.08 0 0 0 .838-.17c.257-.107.492-.261.692-.455.196-.195.353-.426.461-.68a2.102 2.102 0 0 0-.46-2.329 2.09 2.09 0 0 0-.693-.445 2.095 2.095 0 0 0-.838-.168l-2.165-.012zm52.065-2.632v3.212h3.532s-.191 1.451.726 2.014H57.15v2.379c0 .205.04.407.119.596a1.588 1.588 0 0 0 1.451.94h1.564v1.99H58.72a3.579 3.579 0 0 1-1.412-.275 3.657 3.657 0 0 1-1.935-1.89 3.452 3.452 0 0 1-.281-1.378v-2.38h-5.063a.483.483 0 0 0-.354.153.457.457 0 0 0-.146.354.488.488 0 0 0 .146.366c.09.1.22.156.354.151h2.098c.334 0 .666.06.98.175.294.111.565.277.798.49.238.206.43.461.562.747.132.302.2.628.197.957.002.338-.065.673-.197.984a2.6 2.6 0 0 1-.562.799 2.555 2.555 0 0 1-.799.562 2.51 2.51 0 0 1-.979.197h-5.551l-.687-.928a4.996 4.996 0 0 1-1.13.759 3.72 3.72 0 0 1-.647.231 2.704 2.704 0 0 1-.67.084 3.817 3.817 0 0 1-1.417-.258 3.663 3.663 0 0 1-1.165-.737 3.424 3.424 0 0 1-.781-1.17 3.925 3.925 0 0 1-.287-1.536v-.928c.135-.63 2.07-2.025 2.07-2.025v2.976c-.003.244.04.486.13.714.074.198.189.378.337.529.141.144.312.257.5.332.196.073.404.11.613.107.21.001.417-.049.602-.147.189-.094.358-.222.5-.377.145-.165.258-.356.333-.562.082-.196.124-.406.123-.619v-4.393h2.104v5.974h5.063a.479.479 0 0 0 .354-.152.459.459 0 0 0 .146-.354.276.276 0 0 0-.146-.282.861.861 0 0 0-.354-.067h-2.11a2.517 2.517 0 0 1-.984-.197 2.666 2.666 0 0 1-.804-.563 2.607 2.607 0 0 1-.563-.804 2.437 2.437 0 0 1-.163-1.024 2.414 2.414 0 0 1 .197-.984c.248-.608.73-1.09 1.339-1.339a2.41 2.41 0 0 1 .984-.197h5.063v-3.206h2.053zm6.378.113c.204.07.395.174.563.309.146.13.266.286.354.461.09.174.135.367.13.563 0 .098-.012.196-.034.292a1.802 1.802 0 0 1-.09.287c-.041.092-.09.18-.146.264-.055.081-.12.155-.192.22.113.066.217.145.31.236s.172.196.236.31c.066.11.117.23.152.354.024.126.032.254.022.382.003.221-.05.44-.151.636a1.565 1.565 0 0 1-.422.5c-.185.147-.395.26-.62.332a2.47 2.47 0 0 1-1.512 0 1.95 1.95 0 0 1-.619-.332 1.565 1.565 0 0 1-.422-.5 1.353 1.353 0 0 1-.152-.636c0-.13.017-.261.05-.388.037-.124.088-.242.153-.354.066-.11.145-.213.236-.304.094-.095.2-.176.315-.242a1.005 1.005 0 0 1-.191-.22 1.356 1.356 0 0 1-.146-.264 1.22 1.22 0 0 1-.09-.28 1.267 1.267 0 0 1-.034-.293 1.224 1.224 0 0 1 .13-.563c.09-.173.21-.329.354-.461.157-.132.336-.237.528-.31a1.9 1.9 0 0 1 1.288 0zm4.168 0c.193.072.372.177.53.309.147.13.27.286.36.461a1.262 1.262 0 0 1 .095.855 1.802 1.802 0 0 1-.09.287c-.041.092-.09.18-.146.264-.055.081-.12.155-.192.22.236.132.43.326.563.562.064.111.114.23.146.355.022.12.025.243.011.365.003.221-.05.44-.151.636a1.64 1.64 0 0 1-.422.5c-.185.147-.395.26-.62.332a2.47 2.47 0 0 1-1.512 0 2.066 2.066 0 0 1-.625-.332 1.606 1.606 0 0 1-.416-.5 1.353 1.353 0 0 1-.152-.636c0-.13.017-.261.05-.388.035-.124.086-.244.153-.354.066-.11.145-.213.236-.304.094-.095.2-.176.315-.242a1.005 1.005 0 0 1-.191-.22c-.06-.08-.109-.17-.146-.264a1.288 1.288 0 0 1-.096-.28l-.006-.147.006-.146c-.005-.196.04-.39.13-.563.085-.176.206-.333.354-.461.157-.132.336-.237.528-.31a1.9 1.9 0 0 1 1.288 0zm-5.186 2.902c-.11.042-.212.101-.303.174a.818.818 0 0 0-.203.26.712.712 0 0 0 0 .63c.051.092.12.174.203.241.092.07.194.125.303.163.244.075.505.075.748 0a.982.982 0 0 0 .304-.163.755.755 0 0 0 .208-.242.746.746 0 0 0 .073-.315.731.731 0 0 0-.281-.574 1.01 1.01 0 0 0-.304-.174 1.168 1.168 0 0 0-.748 0zm4.14 0c-.11.042-.212.101-.303.174a.818.818 0 0 0-.203.26.67.67 0 0 0 0 .63c.051.092.12.174.203.241.092.07.194.125.303.163.244.075.505.075.748 0 .11-.037.213-.092.304-.163a.753.753 0 0 0 .203-.242.677.677 0 0 0 0-.63.764.764 0 0 0-.203-.259 1.067 1.067 0 0 0-.304-.174 1.168 1.168 0 0 0-.748 0zm.384-2.059a.752.752 0 0 0-.27.05.616.616 0 0 0-.366.316.55.55 0 0 0 0 .461.615.615 0 0 0 .366.309c.087.03.178.045.27.046a.758.758 0 0 0 .478-.169.53.53 0 0 0 .146-.186.51.51 0 0 0 0-.461.593.593 0 0 0-.146-.191.675.675 0 0 0-.22-.124.652.652 0 0 0-.258-.05zm-4.14 0a.752.752 0 0 0-.27.05.593.593 0 0 0-.416.54.448.448 0 0 0 .056.232.527.527 0 0 0 .146.185.613.613 0 0 0 .214.124.81.81 0 0 0 .562 0 .717.717 0 0 0 .214-.124.527.527 0 0 0 .146-.185.448.448 0 0 0 .028-.226.593.593 0 0 0-.202-.421.74.74 0 0 0-.214-.124.704.704 0 0 0-.264-.05z"/><path fill="#F3BA0C" d="M32.761 34.876c.511.562 2.919 3.498 3.684 7.025 0 .056.096.068.112 0 .478-1.282 3.5-8.51 11.475-10.018.068 0 .073-.112 0-.118-1.49-.14-6.992-.22-11.53 5.327-.046.056-.108.056-.142 0a4.402 4.402 0 0 0-3.549-2.329.068.068 0 0 0-.062.04.068.068 0 0 0 .012.072z"/></g></svg>