<svg xmlns="http://www.w3.org/2000/svg" width="72" height="72"><path fill="#6C2556" fill-rule="evenodd" d="M46.473 31.914c1.06 0 1.919-.848 1.919-1.894 0-1.047-.86-1.895-1.92-1.895a1.907 1.907 0 0 0-1.918 1.895c0 1.046.86 1.894 1.919 1.894zM31.8 32.932a13.593 13.593 0 0 1-2.214 3.75V28.99l-3.986.781v13.942h3.986v-4.312a14.924 14.924 0 0 1 1.708 4.312h4.8c-.473-1.95-2.551-5.549-2.551-5.549a17.297 17.297 0 0 0 2.812-5.233H31.8zm10.54-.147c-3.593.118-5.415 1.687-5.415 4.869v6.06h3.911v-4.941c0-1.895.25-2.705 2.528-2.811v-3.148c-.34-.05-.686-.07-1.03-.057l.005.028zm-23.487 1.687c-.495-.028-1.628-.101-1.628-1.124 0-1.22 1.634-1.22 2.249-1.22 1.182.052 2.351.258 3.479.612 0 0 .569.192 1.03.388h.04v-3.31h-.057a14.1 14.1 0 0 0-5.09-.8c-4.378-.027-5.939 2.486-5.939 4.65 0 1.242.541 4.171 5.557 4.497.427 0 1.555.09 1.555 1.125 0 .865-.923 1.371-2.477 1.371a12.245 12.245 0 0 1-4.361-.837v3.485c1.695.406 3.437.595 5.181.562 4.282 0 6.2-2.383 6.2-4.744 0-2.682-2.146-4.419-5.745-4.66l.006.005zm25.673 9.242h3.888V32.943h-3.888v10.771zM55.73 29.66v14.054h3.894V28.991l-3.889.686-.005-.017zm-5.694 0 3.894-.67v14.724h-3.87V29.66h-.023z"/></svg>