<svg xmlns="http://www.w3.org/2000/svg" width="72" height="72"><g fill="#5B69F2" fill-rule="nonzero"><path d="M25.473 40.098h-1.772l-.71-1.831h-3.19l-.65 1.831h-1.713l3.131-8.036h1.714l3.19 8.036zm-3.013-3.25-1.064-3.013-1.063 3.013h2.127zm5.065 3.25v-8.035h1.905l3.393 5.278v-5.278h1.666v7.977h-1.785l-3.512-5.573v5.573h-1.667zm36.6 0v-8.035h1.766v6.44h3.859v1.536h-5.625zM37.95 35.693h.734c.564 0 .902-.06 1.071-.119.17-.06.339-.238.451-.416.113-.179.17-.417.17-.655 0-.298-.057-.536-.226-.714-.17-.179-.338-.298-.564-.357-.169-.06-.507-.06-.958-.06h-.678v2.321zm0 1.31v3.095h-1.409v-8.036h3.045c1.297 0 2.312 1.072 2.312 2.441 0 1.369-1.015 2.44-2.312 2.44l-1.635.06zm7.5-.923c0-1.377 1.139-2.525 2.518-2.525 1.38 0 2.519 1.148 2.519 2.525 0 1.378-1.14 2.526-2.52 2.526-1.378 0-2.518-1.148-2.518-2.526zm2.518 4.018a4.006 4.006 0 0 0 4.018-4.018c0-2.238-1.8-4.018-4.018-4.018a4.006 4.006 0 0 0-4.018 4.018 4.005 4.005 0 0 0 4.018 4.018zm7.569-4.018c0-1.377 1.14-2.525 2.518-2.525 1.38 0 2.519 1.148 2.519 2.525 0 1.378-1.14 2.526-2.519 2.526-1.379 0-2.518-1.148-2.518-2.526zm2.518 4.018c2.22 0 4.018-1.78 4.018-4.018a4.006 4.006 0 0 0-4.018-4.018 4.006 4.006 0 0 0-4.017 4.018 4.005 4.005 0 0 0 4.017 4.018zM14.538 43.313h-3.36c-.341 0-.683-.175-.854-.465l-7.97-12.61c-.286-.465.056-.988.568-.988h3.53c.284 0 .512.116.626.349l7.972 12.668a.647.647 0 0 1-.512 1.046z"/><path d="M2.9 43.313h3.36c.34 0 .682-.175.853-.465l7.971-12.61c.286-.465-.057-.988-.57-.988h-3.53c-.284 0-.512.116-.625.349L2.388 42.267a.647.647 0 0 0 .512 1.046z"/></g></svg>